<svg width="26" height="19" viewBox="0 0 26 19" fill="none" xmlns="http://www.w3.org/2000/svg">
<path fill-rule="evenodd" clip-rule="evenodd" d="M14.5692 17.6503C6.43771 17.263 1.67496 12.4229 1.05541 9.01536C0.784361 7.58266 1.52007 6.34357 2.99149 5.80147C4.07569 5.37553 5.00501 5.29809 5.93433 5.29809H6.47643C7.8704 5.29809 9.69031 5.37553 12.6719 3.12968C14.5305 1.73571 16.3891 1 18.1703 1C19.9902 1 21.694 1.77443 22.9331 3.20713C24.4432 4.87215 25.2177 7.27289 24.9466 9.48002C24.5981 13.0424 22.7008 18.0375 14.5692 17.6503Z" stroke="white"/>
<path fill-rule="evenodd" clip-rule="evenodd" d="M15.4598 16.1401H14.6467C7.28959 15.7916 3.18511 11.6484 2.68173 8.86047C2.52684 7.96987 3.03022 7.46649 3.57232 7.27289C4.38547 6.96311 5.1599 6.84695 5.97306 6.84695H6.51516C8.06402 6.84695 10.2324 6.92439 13.6399 4.36877C15.2275 3.1684 16.7764 2.54886 18.2091 2.54886C19.5643 2.54886 20.8808 3.12968 21.8489 4.21388C23.0493 5.56914 23.7075 7.50522 23.5139 9.28641C22.9331 13.8943 20.3387 16.1401 15.4598 16.1401Z" stroke="white"/>
<path d="M7.56063 11.0676C8.20219 11.0676 8.72228 10.5475 8.72228 9.90595C8.72228 9.2644 8.20219 8.74431 7.56063 8.74431C6.91907 8.74431 6.39899 9.2644 6.39899 9.90595C6.39899 10.5475 6.91907 11.0676 7.56063 11.0676Z" stroke="white"/>
</svg>
